<?xml version="1.0" encoding="UTF-8"?>
<svg id="Layer_1" data-name="Layer 1" xmlns="http://www.w3.org/2000/svg" version="1.1" viewBox="0 0 176 322">
  <defs>
    <style>
      .cls-1 {
        fill: #61cae5;
      }

      .cls-1, .cls-2, .cls-3, .cls-4 {
        stroke: #194225;
        stroke-miterlimit: 10;
      }

      .cls-2 {
        fill: #5caa46;
        stroke-width: 6px;
      }

      .cls-5 {
        stroke-width: 0px;
      }

      .cls-5, .cls-3 {
        fill: #fff;
      }

      .cls-3 {
        stroke-width: .5px;
      }

      .cls-4 {
        fill: #231f20;
        opacity: .4;
        stroke-width: 2px;
      }
    </style>
  </defs>
  <path class="cls-1" d="M173,160.1c0,59.5-31.9,114-85,156.3C34.9,274.1,3,219.6,3,160.1S34.9,46.1,88,3.8c53.1,42.3,85,96.8,85,156.3Z"/>
  <path class="cls-2" d="M173,160.1c0,59.5-31.9,114-85,156.3C34.9,274.1,3,219.6,3,160.1S34.9,46.1,88,3.8c53.1,42.3,85,96.8,85,156.3Z"/>
  <path class="cls-4" d="M171.4,163.7c0,59.5-31.9,114-85,156.3V7.4c53.1,42.3,85,96.8,85,156.3Z"/>
  <path class="cls-5" d="M140.8,176.6c7.3-11.3,6.7-24.7-1.3-29.9-8-5.2-20.4-.2-27.7,11.1-4.4,6.8-5.9,14.3-4.7,20.4.7,3.4-.1,6.8-2,9.5l-19.8,29.1-33.3,49c-2.5,3.6-1.1,8.8,3.1,11.5h0c4.2,2.7,9.4,1.8,11.7-1.9l30.7-50.1,18.6-30.3c1.7-2.8,4.5-4.9,7.9-5.7,6-1.4,12.3-5.9,16.7-12.7Z"/>
  <path class="cls-5" d="M51.1,138.4h0s10.4,16.1,10.4,16.1c1.2,1.8.7,4.3-1.2,5.5h0c-1.8,1.2-4.3.7-5.5-1.2l-10.4-16.1-3.6,2.4,10.4,16.1c1.2,1.8.7,4.3-1.2,5.5h0c-1.8,1.2-4.3.7-5.5-1.2l-10.4-16.1-3,2,10.4,16.1c1.2,1.8.7,4.3-1.2,5.5h0c-1.8,1.2-4.3.7-5.5-1.2l-10.4-16.1h0c-2.6,1.7-3.5,5-2.2,7.8l16,33,18.4-2.8c2.6-.4,5.1.8,6.5,3l48.4,78.3c2.2,3.5,6.7,4.9,10.3,2.9s5-7.2,2.6-10.9l-51.8-76.5c-1.5-2.1-1.5-4.9-.1-7.1l9.7-15.4-23.1-28.4c-2-2.4-5.4-2.9-8-1.3Z"/>
  <g>
    <path class="cls-3" d="M38.4,95.1c0,4.2-7.5,1.2-7.5,4.9s6.5,1.7,6.5,5.8-5.8,3-5.8,4.5c0,4.4,8.2-.2,8.2,5.9s-4.6,5.7-8.9,5.7c-7.6,0-7.9-7.6-7.9-15.5v-.8c0-7.4.1-14.5,8.1-14.5s7.3.2,7.3,4.1Z"/>
    <path class="cls-3" d="M58.2,94.7c0,9.6-9.5,1.1-9.5,11.3s10.4,3.5,10.4,11-3.5,4.8-7,4.8c-8.1,0-12-6.2-12-14.5,0-12.3,6.9-16.5,12.1-16.5s6,1.4,6,4Z"/>
    <path class="cls-3" d="M59.6,105.5c0-7.2,2.9-14.8,10-14.8s9.5,4.4,9.5,11.8-1.1,19.6-9.5,19.6-9.9-9.6-9.9-16.6ZM69.2,108.2c1.3,0,2-2.1,2-4.2s-.5-3.9-1.5-3.9c-1.7,0-2.1,2.2-2.1,3.6s.2,4.5,1.6,4.5Z"/>
  </g>
  <g>
    <path class="cls-3" d="M104.4,97.4c0,3.5-6.4,1.1-6.4,4.2s5.5,1.4,5.5,4.9-4.9,2.5-4.9,3.8c0,3.7,6.9-.1,6.9,5s-3.9,4.8-7.6,4.8c-6.5,0-6.7-6.5-6.7-13.1v-.7c0-6.2.1-12.3,6.9-12.3s6.2.2,6.2,3.5Z"/>
    <path class="cls-3" d="M114.9,93.7c7.7,0,10.9,12.7,10.9,20.9s-.6,4.6-2.9,4.6-3.4-3.1-4.1-5.5c-.3-1.1-1-1.4-2-1.4s-1,0-1.6.2c-.8.2-.9.5-1.1,1.3-.6,2.7-1,6.3-4.2,6.3s-3.1-1.8-3.1-4.7,1.6-9.7,2.5-13.7c.8-3.6,2-7.9,5.7-7.9ZM116.9,106.7c.6,0,.7-.1.7-.8,0-2.1-.8-4.5-1.4-4.5-1,0-1.5,2.7-1.5,4.5s.1.5.7.6c.5,0,1,.1,1.6.1Z"/>
    <path class="cls-3" d="M129.9,105.1c0-1.8,0-3.7-2.4-3.7s-2.7-1.5-2.7-3.1c0-4.2,5.1-4.5,8.8-4.5s7.2.3,7.2,4-4.2,1.7-4.2,4.7c0,4.2.3,8.3.3,12.2s-.4,5.5-3.8,5.5-3.3-4.5-3.3-6.8,0-5.3,0-8.1Z"/>
    <path class="cls-3" d="M145.3,120.3c-2.5,0-4.1-1.9-4.1-4.1,0-4.7,5.9-4.8,5.9-9s-4.9-3.1-4.9-6.4c0-5.5,5.2-7.2,9.8-7.2s3.4.8,3.4,2.9c0,3.4-4.2,2.3-4.2,4.8s4.2,4.2,4.2,9.7-4.8,9.2-10.1,9.2Z"/>
  </g>
</svg>